name D:\PhD\Datasets\SharingData_IBEC_VALDUCE\RM2_Healthy_0001.mot
datacolumns 46
datarows 6
range 2.51000000 2.56000000
endheader
                time	         pelvis_tilt	     pelvis_rotation	           pelvis_tx	           pelvis_ty	           pelvis_tz	       hip_flexion_r	     hip_adduction_r	      hip_rotation_r	        knee_angle_r	       ankle_angle_r	    subtalar_angle_r	         mtp_angle_r	       hip_flexion_l	     hip_adduction_l	      hip_rotation_l	        knee_angle_l	       ankle_angle_l	    subtalar_angle_l	         mtp_angle_l	    lumbar_extension	      lumbar_bending	     lumbar_rotation	          arm_flex_r	           arm_add_r	           arm_rot_r	        elbow_flex_r	           pro_sup_r	        wrist_flex_r	         wrist_dev_r	          arm_flex_l	           arm_add_l	           arm_rot_l	        elbow_flex_l	           pro_sup_l	        wrist_flex_l	         wrist_dev_l	          end_eff_tx	          end_eff_ty	          end_eff_tz	             goal_tx	             goal_ty	             goal_tz	            elbow_tx	            elbow_ty	            elbow_tz	
          2.51000000	          0.00000000	          0.00000000	        326.61127222	        493.31804109	        365.29329960	          0.00000000	          0.00000000	          0.00000000	          0.00000000	          0.00000000	          0.00000000	          0.00000000	          0.00000000	          0.00000000	          0.00000000	          0.00000000	          0.00000000	          0.00000000	          0.00000000	         -4.98766994	          2.71293068	         -1.87266886	         35.98888397	        -38.16820145	         20.52331734	         63.40470886	         95.37704468	          0.00000000	          0.00000000	          0.00000000	          0.00000000	          0.00000000	          0.00000000	          0.00000000	          0.00000000	          0.00000000	        737.44420055	        400.15244095	        598.64730973	       1104.43199191	        673.21637041	        512.76104120	        342.99622586	        371.73476978	        728.24663355	
          2.52000000	          0.00000000	          0.00000000	        326.81015686	        493.21049437	        365.07872070	          0.00000000	          0.00000000	          0.00000000	          0.00000000	          0.00000000	          0.00000000	          0.00000000	          0.00000000	          0.00000000	          0.00000000	          0.00000000	          0.00000000	          0.00000000	          0.00000000	         -5.02204466	          2.62542820	         -1.75296152	         36.72542572	        -38.26950073	         20.62632179	         63.24562073	         94.95446777	          0.00000000	          0.00000000	          0.00000000	          0.00000000	          0.00000000	          0.00000000	          0.00000000	          0.00000000	          0.00000000	        741.33998917	        405.28161365	        598.49498918	       1104.43820510	        673.17266367	        512.76706366	        347.36037295	        373.73965592	        728.45506769	
          2.53000000	          0.00000000	          0.00000000	        327.01594365	        493.14058672	        364.85678374	          0.00000000	          0.00000000	          0.00000000	          0.00000000	          0.00000000	          0.00000000	          0.00000000	          0.00000000	          0.00000000	          0.00000000	          0.00000000	          0.00000000	          0.00000000	          0.00000000	         -5.05985975	          2.58745956	         -1.67276943	         37.41976929	        -38.26890564	         20.84810257	         63.13646698	         94.62297058	          0.00000000	          0.00000000	          0.00000000	          0.00000000	          0.00000000	          0.00000000	          0.00000000	          0.00000000	          0.00000000	        745.27671583	        410.14206914	        598.27857235	       1104.43199294	        673.20012027	        512.76831322	        351.61947704	        375.93325041	        728.70511414	
          2.54000000	          0.00000000	          0.00000000	        327.20258723	        492.99160486	        364.63779160	          0.00000000	          0.00000000	          0.00000000	          0.00000000	          0.00000000	          0.00000000	          0.00000000	          0.00000000	          0.00000000	          0.00000000	          0.00000000	          0.00000000	          0.00000000	          0.00000000	         -5.13976669	          2.51869035	         -1.60750127	         38.16901016	        -38.31421280	         21.01098633	         63.09644699	         94.48519135	          0.00000000	          0.00000000	          0.00000000	          0.00000000	          0.00000000	          0.00000000	          0.00000000	          0.00000000	          0.00000000	        749.16817084	        415.12834568	        597.95660489	       1104.42494029	        673.22499012	        512.77013166	        355.91626488	        378.02963657	        728.82612057	
          2.55000000	          0.00000000	          0.00000000	        327.38196344	        492.85912678	        364.40711354	          0.00000000	          0.00000000	          0.00000000	          0.00000000	          0.00000000	          0.00000000	          0.00000000	          0.00000000	          0.00000000	          0.00000000	          0.00000000	          0.00000000	          0.00000000	          0.00000000	         -5.29616785	          2.52173638	         -1.59316409	         39.10739517	        -38.27126312	         21.34234619	         62.90504074	         94.22508240	          0.00000000	          0.00000000	          0.00000000	          0.00000000	          0.00000000	          0.00000000	          0.00000000	          0.00000000	          0.00000000	        752.96795854	        420.00240135	        597.55088506	       1104.43847956	        673.21609094	        512.75394976	        360.24443151	        380.20166150	        728.89311839	
          2.56000000	          0.00000000	          0.00000000	        327.59517602	        492.69277741	        364.17427809	          0.00000000	          0.00000000	          0.00000000	          0.00000000	          0.00000000	          0.00000000	          0.00000000	          0.00000000	          0.00000000	          0.00000000	          0.00000000	          0.00000000	          0.00000000	          0.00000000	         -5.29926443	          2.47721601	         -1.53286946	         39.81386948	        -38.28796005	         21.61012650	         62.75864792	         94.04532623	          0.00000000	          0.00000000	          0.00000000	          0.00000000	          0.00000000	          0.00000000	          0.00000000	          0.00000000	          0.00000000	        756.90856112	        424.91148329	        597.20261367	       1104.42654222	        673.22224969	        512.77304494	        364.63685174	        382.25191638	        728.98594486	
